<svg width="180" height="20" viewBox="0 0 180 20" fill="none" xmlns="http://www.w3.org/2000/svg">
<path d="M10.53 19.764C8.532 19.764 6.732 19.35 5.13 18.522C3.528 17.676 2.268 16.506 1.35 15.012C0.45 13.5 0 11.79 0 9.882C0 7.974 0.45 6.273 1.35 4.779C2.268 3.267 3.528 2.097 5.13 1.269C6.732 0.423 8.532 0 10.53 0C12.366 0 14.004 0.324001 15.444 0.972001C16.884 1.62 18.072 2.556 19.008 3.78L14.985 7.371C13.815 5.895 12.438 5.157 10.854 5.157C9.522 5.157 8.451 5.589 7.641 6.453C6.831 7.299 6.426 8.442 6.426 9.882C6.426 11.322 6.831 12.474 7.641 13.338C8.451 14.184 9.522 14.607 10.854 14.607C12.438 14.607 13.815 13.869 14.985 12.393L19.008 15.984C18.072 17.208 16.884 18.144 15.444 18.792C14.004 19.44 12.366 19.764 10.53 19.764Z" fill="black" fill-opacity="0.8"/>
<path d="M30.3613 19.764C28.3273 19.764 26.5003 19.341 24.8803 18.495C23.2603 17.649 21.9913 16.479 21.0733 14.985C20.1553 13.473 19.6963 11.772 19.6963 9.882C19.6963 7.992 20.1553 6.3 21.0733 4.806C21.9913 3.294 23.2603 2.115 24.8803 1.269C26.5003 0.423 28.3273 0 30.3613 0C32.3953 0 34.2223 0.423 35.8423 1.269C37.4623 2.115 38.7313 3.294 39.6493 4.806C40.5673 6.3 41.0263 7.992 41.0263 9.882C41.0263 11.772 40.5673 13.473 39.6493 14.985C38.7313 16.479 37.4623 17.649 35.8423 18.495C34.2223 19.341 32.3953 19.764 30.3613 19.764ZM30.3613 14.607C31.1533 14.607 31.8643 14.418 32.4943 14.04C33.1423 13.644 33.6553 13.095 34.0333 12.393C34.4113 11.673 34.6003 10.836 34.6003 9.882C34.6003 8.928 34.4113 8.1 34.0333 7.398C33.6553 6.678 33.1423 6.129 32.4943 5.751C31.8643 5.355 31.1533 5.157 30.3613 5.157C29.5693 5.157 28.8493 5.355 28.2013 5.751C27.5713 6.129 27.0673 6.678 26.6893 7.398C26.3113 8.1 26.1223 8.928 26.1223 9.882C26.1223 10.836 26.3113 11.673 26.6893 12.393C27.0673 13.095 27.5713 13.644 28.2013 14.04C28.8493 14.418 29.5693 14.607 30.3613 14.607Z" fill="black" fill-opacity="0.8"/>
<path d="M52.384 19.764C49.486 19.764 47.227 18.981 45.607 17.415C43.987 15.849 43.177 13.653 43.177 10.827V0.432H49.549V10.638C49.549 12.024 49.792 13.032 50.278 13.662C50.782 14.292 51.502 14.607 52.438 14.607C53.374 14.607 54.085 14.292 54.571 13.662C55.075 13.032 55.327 12.024 55.327 10.638V0.432H61.591V10.827C61.591 13.653 60.781 15.849 59.161 17.415C57.541 18.981 55.282 19.764 52.384 19.764Z" fill="black" fill-opacity="0.8"/>
<path d="M72.6119 14.58H70.8839V19.332H64.5119V0.432H73.6109C75.3569 0.432 76.8779 0.719999 78.1739 1.296C79.4699 1.872 80.4689 2.7 81.1709 3.78C81.8729 4.86 82.2239 6.12 82.2239 7.56C82.2239 8.91 81.9179 10.089 81.3059 11.097C80.6939 12.105 79.8119 12.906 78.6599 13.5L82.6289 19.332H75.8249L72.6119 14.58ZM75.7979 7.56C75.7979 6.858 75.5819 6.318 75.1499 5.94C74.7179 5.544 74.0699 5.346 73.2059 5.346H70.8839V9.774H73.2059C74.0699 9.774 74.7179 9.585 75.1499 9.207C75.5819 8.811 75.7979 8.262 75.7979 7.56Z" fill="black" fill-opacity="0.8"/>
<path d="M91.677 19.764C90.111 19.764 88.581 19.593 87.087 19.251C85.611 18.891 84.396 18.414 83.442 17.82L85.494 13.176C86.394 13.698 87.402 14.121 88.518 14.445C89.634 14.751 90.705 14.904 91.731 14.904C92.613 14.904 93.243 14.823 93.621 14.661C93.999 14.481 94.188 14.22 94.188 13.878C94.188 13.482 93.936 13.185 93.432 12.987C92.946 12.789 92.136 12.573 91.002 12.339C89.544 12.033 88.329 11.709 87.357 11.367C86.385 11.007 85.539 10.431 84.819 9.639C84.099 8.829 83.739 7.74 83.739 6.372C83.739 5.184 84.072 4.104 84.738 3.132C85.404 2.16 86.394 1.395 87.708 0.836999C89.04 0.279 90.651 0 92.541 0C93.837 0 95.106 0.144001 96.348 0.432C97.608 0.702 98.715 1.107 99.669 1.647L97.752 6.264C95.898 5.328 94.143 4.86 92.487 4.86C90.849 4.86 90.03 5.256 90.03 6.048C90.03 6.426 90.273 6.714 90.759 6.912C91.245 7.092 92.046 7.29 93.162 7.506C94.602 7.776 95.817 8.091 96.807 8.451C97.797 8.793 98.652 9.36 99.372 10.152C100.11 10.944 100.479 12.024 100.479 13.392C100.479 14.58 100.146 15.66 99.48 16.632C98.814 17.586 97.815 18.351 96.483 18.927C95.169 19.485 93.567 19.764 91.677 19.764Z" fill="black" fill-opacity="0.8"/>
<path d="M118.089 14.526V19.332H102.375V0.432H117.738V5.238H108.639V7.452H116.631V12.042H108.639V14.526H118.089Z" fill="black" fill-opacity="0.8"/>
<path d="M139.172 0.432V19.332H133.934L126.752 10.746V19.332H120.542V0.432H125.78L132.962 9.018V0.432H139.172Z" fill="black" fill-opacity="0.8"/>
<path d="M146.346 5.373H140.811V0.432H158.253V5.373H152.718V19.332H146.346V5.373Z" fill="black" fill-opacity="0.8"/>
<path d="M171.838 16.038H164.656L163.387 19.332H156.907L165.169 0.432H171.433L179.695 19.332H173.107L171.838 16.038ZM170.083 11.448L168.247 6.696L166.411 11.448H170.083Z" fill="black" fill-opacity="0.8"/>
</svg>
