<svg fill="none" height="48" viewBox="0 0 48 48" width="48" xmlns="http://www.w3.org/2000/svg"><path d="m24 45c-11.598 0-21-9.402-21-21s9.402-21 21-21 21 9.402 21 21-9.402 21-21 21z" fill="#a6cfff"/><path d="m22.1019 11.6145c.7979-1.486 2.9983-1.486 3.7962 0l3.0047 5.5962 6.3702 1.2117c1.6284.3097 2.2866 2.2156 1.1769 3.4078l-4.5171 4.8529.8297 6.4945c.2089 1.6353-1.551 2.837-3.077 2.1012l-5.6855-2.7414-5.6855 2.7414c-1.526.7358-3.2859-.4659-3.077-2.1012l.8297-6.4945-4.5171-4.8529c-1.1097-1.1922-.4515-3.0981 1.1769-3.4078l6.3702-1.2117z" fill="#1575e5"/></svg>